<svg version="1.1" xmlns="http://www.w3.org/2000/svg" viewBox="0 0 2048 2048" width="1000" height="1000" preserveAspectRatio="none" display="block"><path fill="#000000" d="M 940.236 938.562 C 967.38 937.422 999.213 937.595 1026.46 937.994 C 1017.49 955.171 1003.45 977.803 993.47 994.984 C 966.65 1041.08 939.044 1086.71 910.665 1131.85 C 903.294 1132.81 893.23 1132.8 885.526 1133.26 C 869.609 1134.38 853.71 1135.72 837.831 1137.28 C 780.972 1143.25 724.709 1153.94 669.623 1169.25 C 590.047 1191.36 506.468 1224.09 445.04 1281.57 C 434.511 1291.43 423.099 1304.12 416.014 1316.66 C 377.232 1264.41 374.077 1244.64 373.8 1181.93 C 369.558 1192.46 363.913 1206.37 362.235 1217.39 C 356.33 1256.15 364.529 1284.94 387.429 1316.54 C 422.039 1364.29 477.942 1399.35 530.534 1424.36 C 538.922 1428.34 560.228 1437.95 569.027 1438.67 C 609.968 1442.04 661.194 1433.51 695.398 1409.63 C 704.782 1403.18 717.41 1389.18 718.084 1377.47 C 720.523 1335.14 643.057 1317.29 613.705 1314.7 C 557.455 1309.72 496.763 1317.04 452.544 1353.81 C 447.026 1349.46 441.593 1343.9 436.519 1338.96 C 465.571 1290.49 532.804 1252.66 584.607 1231.43 C 681.582 1191.69 787.474 1174.34 891.376 1167.52 C 880.356 1182.97 870.073 1199.98 859.663 1216.02 C 850.533 1217.12 836.743 1216.75 827.096 1217.13 C 807.655 1217.92 788.297 1220.11 769.173 1223.69 C 750.539 1227.3 719.725 1235.27 707.697 1251.6 C 699.818 1262.3 712.714 1273.06 721.807 1277.4 C 751.324 1291.49 790.926 1291.68 821.562 1281.7 C 807.435 1306.63 782.735 1330.52 777.085 1357.35 C 774.938 1367.55 779.427 1379.16 785.673 1387.26 C 814.851 1425.12 897.831 1443.43 945 1448.47 C 1040.61 1456.48 1160.71 1457.67 1242.87 1401.53 C 1262.11 1388.38 1275.28 1362.65 1258.97 1341.99 C 1265.31 1333.64 1271.58 1325.24 1277.79 1316.78 C 1287.49 1304.26 1297.65 1291.5 1306.47 1278.38 C 1334.45 1280.73 1368.85 1281.17 1394.81 1268.93 C 1404.52 1264.35 1423.1 1251.63 1413.97 1238.92 C 1400.49 1220.13 1375.45 1216.1 1354.43 1211.06 C 1361.97 1198.5 1380.39 1179.71 1391.24 1163.61 C 1480.39 1189.17 1648.13 1246.9 1653.78 1361.33 C 1654.63 1378.38 1653.94 1397.77 1653.87 1414.97 L 1653.91 1498.75 L 1653.91 1581.96 C 1653.91 1599.57 1655.55 1635.85 1650.54 1651.05 C 1607.63 1781.21 1380.58 1835.52 1270.54 1854.18 C 1207.84 1864.28 1144.61 1870.8 1081.17 1873.69 C 1063.45 1874.51 1039.69 1874.33 1021.5 1874.09 C 999.986 1873.82 973.007 1875.04 951.915 1873.73 C 765.002 1862.09 535.818 1829.03 389.558 1702.7 C 355.904 1673.63 321.599 1626.99 321.792 1582.48 C 321.882 1561.85 321.485 1539.85 321.501 1519.06 L 321.688 1395.05 C 321.607 1365.96 321.406 1336.62 321.611 1307.46 C 322.651 1273.65 316.767 1230.01 325.36 1197.53 C 349.456 1106.44 452.693 1044.57 534.163 1012.57 C 662.116 962.318 803.958 943.843 940.236 938.562 z M 1473.82 1442.99 C 1483.88 1442.16 1499.16 1441.49 1508.69 1438.64 C 1538.01 1429.61 1569.3 1413.73 1590.07 1390.73 C 1607.45 1371.48 1603.17 1359.2 1584.04 1344.84 C 1545.62 1316.01 1496.99 1311.75 1450.89 1312.44 C 1412.26 1313.84 1363.59 1322.87 1335.1 1351.22 C 1316.63 1369.6 1320.81 1390.77 1339.28 1407.01 C 1371.97 1435.76 1431.32 1446.17 1473.82 1442.99 z M 648.646 1519.41 C 646.862 1530.42 648.283 1561.11 648.517 1572 C 648.733 1582.04 715.606 1597.64 723.642 1595.26 C 725.064 1587.23 725.479 1549.49 724.949 1540.34 C 719.013 1537.53 655.019 1520.01 648.646 1519.41 z M 1352.15 1728.32 C 1353.06 1708.59 1353.12 1543.07 1350.96 1539.33 L 1347.95 1539.17 C 1310.72 1547.98 1289.22 1551.75 1252.1 1557.68 C 1251.26 1629.06 1243.68 1618.86 1316.73 1602.98 C 1315.21 1616.61 1315.91 1639.86 1315.91 1654.4 C 1315.68 1687.67 1315.93 1720.94 1316.67 1754.2 C 1316.85 1765.21 1315.65 1793.27 1316.87 1802.71 C 1321.17 1805.43 1325.18 1803.1 1329.74 1801.44 C 1345.54 1797.3 1408.54 1782.54 1416.68 1773.23 C 1418.8 1767.57 1418.82 1715.71 1416 1711.39 C 1408.96 1710.67 1362.47 1725.53 1352.15 1728.32 z M 605.523 1097.68 C 612.476 1097.46 655.223 1084.57 661.705 1079.89 C 665.908 1072.81 664.1 1029.09 662.723 1018.68 C 662.441 1016.54 661.616 1016.29 660.244 1015.24 C 644.779 1017.94 613.851 1026.03 600.802 1033.96 C 601.22 1042.56 599.915 1093.83 603.794 1096.67 C 604.333 1097.06 604.947 1097.34 605.523 1097.68 z M 1398.31 1526.75 C 1398.92 1536.97 1397.59 1575.97 1400.35 1581.67 L 1402.78 1583.54 C 1414.65 1580.35 1425.49 1577.23 1438.36 1572.33 C 1458.91 1564.49 1474.77 1565.23 1470.15 1537.08 C 1469 1530.07 1470.55 1509.48 1468.51 1504.72 C 1467.9 1504.53 1466.63 1504.07 1466.06 1504.02 C 1448.25 1510.64 1430.48 1517.07 1412.21 1522.29 C 1407.53 1523.63 1402.85 1524.98 1398.31 1526.75 z M 513.309 1466.5 C 511.533 1491.28 512.963 1533.85 513.01 1559.78 L 512.983 1734.54 C 522.107 1741.14 596.269 1775.34 604.16 1771.18 C 606.211 1764.11 605.354 1728.36 605.301 1718.75 C 605.487 1715.63 606.199 1709.34 604.232 1707.73 C 595.053 1700.25 556.047 1685.8 545.974 1682.7 C 545.42 1636.85 547.499 1582.79 545.088 1537.86 C 557.164 1543.27 569.742 1549.69 582.423 1552.83 C 582.329 1542.25 583.899 1505.01 580.575 1497.95 C 575.764 1493.91 519.856 1468.82 513.309 1466.5 z M 1497.12 1679.9 C 1497.18 1690.49 1497.8 1700.8 1497.81 1711.45 C 1497.82 1720.13 1496.37 1734.67 1497.36 1742.7 C 1499.86 1744.77 1498.35 1744.12 1502.36 1743.79 C 1519.89 1734.3 1547.25 1722.47 1558.71 1707.5 C 1558.58 1696.92 1559.64 1656.09 1556.87 1649.67 C 1554.98 1648.57 1555.12 1648.62 1552.93 1648.72 C 1541.72 1655.61 1530.29 1662.15 1518.66 1668.31 C 1513.02 1671.33 1502.08 1676.63 1497.12 1679.9 z M 794.298 1552.24 C 793.109 1559.37 792.014 1603.32 795.79 1608.99 C 806 1616.29 859.559 1622.14 870.752 1621.24 C 873.399 1617.58 874.64 1613.2 874.315 1608.77 C 873.613 1599.19 876.418 1572.19 872.764 1564.79 C 864.49 1560.34 810.796 1556.73 794.298 1552.24 z M 749.029 1064.94 C 759.042 1063.74 796.297 1058.95 803.502 1054.66 C 805.834 1046.07 808.213 994.944 801.528 990.295 C 799.525 990.215 798.492 989.959 796.643 990.416 C 781.669 992.133 752.509 994.114 739.399 1001.73 C 736.187 1003.59 738.842 1033.2 738.446 1038.18 C 738.728 1047.43 734.18 1058.69 742.421 1064.73 C 744.716 1064.87 746.717 1065.03 749.029 1064.94 z M 402.097 1658.07 C 412.267 1670.16 440.904 1694.84 455.092 1700.09 C 457.304 1687.72 455.38 1650.76 456.186 1635.51 C 451.641 1630.85 407.847 1598.42 403.538 1597.42 C 401.033 1603.01 401.761 1649.43 402.097 1658.07 z M 458.088 1436.34 C 443.803 1426.23 429.43 1416.44 415.804 1405.45 C 412.887 1403.1 404.48 1395.52 401.659 1394.36 C 398.904 1400.45 400.254 1437.61 400.088 1447.6 C 410.556 1460.45 440.65 1487.38 456.134 1491.36 C 458.374 1482.56 456.675 1449.59 458.088 1436.34 z M 1589.48 1443.61 C 1579.4 1449.85 1570.57 1456.29 1560.01 1462.3 C 1550.5 1467.73 1538.94 1473.28 1529.94 1478.99 C 1530.74 1489.37 1529.86 1530.17 1532.52 1534.03 C 1544.25 1528.59 1585.35 1506.36 1590.54 1493.64 C 1592.66 1488.44 1592.98 1451.42 1591.89 1445.55 C 1590.64 1444.24 1591.01 1444.29 1589.48 1443.61 z M 482.727 1083.4 C 483.892 1098.92 484.299 1113.7 483.341 1129.25 C 483.036 1134.2 481.599 1144.5 485.01 1147.86 L 488.401 1148.23 C 499.704 1142.03 527.704 1128.04 536.189 1121.44 C 535.785 1111.94 536.524 1063.51 534.419 1058.35 C 532.011 1057.6 532.154 1057.6 529.638 1057.72 C 515.086 1064.58 495.011 1073.42 482.727 1083.4 z M 1026.82 1573.29 C 1010.63 1571.76 993.013 1571.73 976.675 1571.24 C 969.945 1571.03 953.531 1570.31 947.453 1570.99 C 945.496 1579.35 944.398 1619.06 947.792 1624.97 C 952.062 1632.41 1015.62 1630.46 1025.15 1630.39 C 1028.5 1623.53 1027.21 1582.78 1026.82 1573.29 z M 1173.64 1566.43 C 1163.94 1567.09 1107.5 1569.91 1102.65 1572.72 C 1099.82 1585.92 1101.16 1612.96 1102.62 1626.82 C 1102.82 1628.65 1109.79 1628.6 1111.49 1628.6 C 1123.49 1628.41 1170.46 1626.9 1178.61 1622.34 C 1182.47 1613.31 1182.24 1577.64 1180.71 1567.61 L 1179.51 1566.31 C 1176.63 1566.19 1176.47 1566.06 1173.64 1566.43 z M 945.802 978.432 C 932.213 979.106 894.699 979.589 884.886 984.219 C 881.849 987.902 883.528 999.638 883.896 1004.73 C 884.653 1015.18 881.182 1037.42 885.315 1046.27 C 888.378 1048.58 886.678 1047.8 890.75 1048.35 C 900.428 1048.12 945.257 1046.87 950.921 1043.12 C 957.246 1031.05 954.425 996.951 953.47 982.713 C 953.231 979.138 948.655 978.747 945.802 978.432 z M 688.63 1728.42 C 686.284 1734.29 685.615 1788.21 688.043 1794.08 C 696.423 1800.78 745.585 1809.21 758.627 1811.68 C 759.258 1810.77 759.889 1809.87 760.52 1808.96 C 761.261 1789.75 761.219 1768.56 760.759 1749.34 C 760.687 1746.34 758.497 1744.85 757.269 1744.1 C 750.791 1740.16 692.759 1728.36 688.63 1728.42 z M 1235 1750.48 C 1223.42 1751.91 1174.44 1755.87 1167.96 1760.66 C 1166.03 1765.89 1166.89 1818.76 1169.06 1824.35 C 1171.15 1826.25 1171.2 1825.98 1174.09 1826.31 C 1183.57 1825.06 1240.47 1821.13 1242.42 1813.39 C 1243.81 1807.87 1245.5 1756.44 1240 1751.26 C 1236.9 1750.26 1237.93 1750.15 1235 1750.48 z M 1007.93 1766.2 C 1005.9 1768.03 1003.92 1769.26 1004.02 1772.53 C 1004.43 1785.39 1002.23 1822.14 1005.9 1832.44 C 1013.8 1835.6 1070.53 1833.26 1079.7 1831.9 C 1082.54 1827.62 1082.54 1772.07 1079.6 1767.49 C 1071.97 1764.87 1018.85 1765.61 1007.93 1766.2 z M 845.791 1756.9 C 842.232 1763 843.997 1782.06 844.21 1788.18 C 844.472 1795.74 841.137 1821.21 848.122 1823.15 C 863.026 1827.3 904.596 1830.82 919.167 1830.11 C 921.841 1825.01 922.649 1764.8 917.454 1763.93 C 897.229 1760.54 865.996 1756.57 845.791 1756.9 z" data-c-fill="ab48fe" fill-opacity="1"/><path fill="#000000" d="M1657.8 259.78C1665.56 263.285 1680.99 273.749 1688.65 278.679 1678.88 295.275 1666.95 310.94 1656.47 327.149 1597.78 417.948 1535.24 506.874 1477.15 598.026 1461.14 623.243 1444.95 648.342 1428.57 673.321 1417.69 690.065 1406.1 708.649 1394.12 724.409 1370.13 725.71 1359.49 723.526 1336.74 735.785 1305.87 752.423 1296.61 796.199 1316.02 825.262 1326.05 840.288 1341.61 850.748 1359.31 854.371 1377.55 858.109 1396.53 854.177 1411.78 843.496 1439.69 824.303 1448.36 788.383 1433.09 758.096 1430.36 752.676 1426.11 746.864 1422.64 741.824 1426.02 734.843 1435.56 720.825 1440.1 713.782 1451.58 696.315 1462.8 678.679 1473.76 660.88L1624.21 419.968 1659.03 364.622C1675.58 338.841 1691 315.644 1704.52 288.151 1710.75 290.299 1731.91 303.99 1738.99 308.304 1733.71 322.238 1730.49 335.064 1726.28 349.331 1719.15 372.971 1712.33 396.704 1705.83 420.523 1665.96 563.087 1632.65 707.573 1618.89 855.248 1614.71 900.013 1622.03 892.235 1588.22 925.211 1566.96 946.403 1539.98 969.071 1517.76 990.008 1475.59 1029.75 1433.84 1069.63 1394 1111.76 1359.64 1148.1 1330.43 1188.4 1300.93 1228.65 1277.04 1261.04 1253.38 1293.59 1229.95 1326.32 1220.7 1320.79 1209.42 1312.86 1199.99 1306.88L1128.61 1262.34C1067.17 1224.65 1002.79 1186.95 942.093 1148.67 990.884 1065.03 1047.82 984.95 1083.79 894.531 1089.22 880.888 1094.56 867.266 1099.76 853.533 1115.42 812.494 1130.25 771.145 1144.25 729.51 1152.65 705.041 1163.58 664.35 1175.28 641.977 1178.06 636.652 1213.02 614.579 1220.88 609.218L1281.05 567.586C1307.76 548.447 1334.2 528.936 1360.37 509.061 1433.11 454.109 1503.67 396.327 1571.88 335.848 1598.92 312.196 1632.27 284.52 1657.8 259.78zM921.036 1183.65C950.35 1202.09 1205.18 1357.08 1208.89 1365.23 1204.92 1377.48 1183.45 1394.6 1171.49 1399.28 1148.58 1408.25 1120.34 1413.95 1096.05 1417.33 1025.22 1430.31 923.118 1422.44 855.435 1394.95 843.661 1390.17 808.21 1372.25 816.359 1355.09 821.836 1343.56 831.503 1329.47 838.47 1318.21L890.164 1235.11C897.611 1223.28 915.277 1196.51 920.453 1184.97L921.036 1183.65zM1754.67 173.967C1765.9 175.961 1768.45 176.829 1774.62 186.733 1773.61 207 1753.67 262.327 1746.02 283.62 1736.71 278.705 1724.15 271.497 1715.64 265.496 1705.47 260.525 1687.17 248.731 1677.07 242.507 1686.81 229.624 1740.77 178.966 1754.67 173.967z" data-c-fill="ab48fe" fill-opacity="1"/></svg>